<svg version="1.2" xmlns="http://www.w3.org/2000/svg" viewBox="0 0 363 402" width="363" height="402">
	<title>Freelance-svg</title>
	<style>
		.s0 { opacity: .5;fill: #bfd0ed } 
	</style>
	<path id="Layer" class="s0" d="m281.9 265.1c3 10.6-43.2 46-100.8 46.8-55.3 0.8-99.2-33.2-100.3-44.8 5.9-25.7 25.5-44.1 48.3-49.2 36.7-7.6 15.3 4.7 44.6 9.2q2 0.3 3.9 0.4 2 0.2 4 0.2 1.9 0 3.9-0.1 1.9-0.2 3.9-0.4c33.4-4.8 8.4-17.1 44.4-9.3 31.4 7.1 44.1 31.4 48.1 47.2z"/>
	<ellipse id="Layer" class="s0" cx="181.8" cy="145.7" rx="56.3" ry="56.3"/>
</svg>